<?xml version="1.0" encoding="UTF-8" standalone="no"?>
<!DOCTYPE svg PUBLIC "-//W3C//DTD SVG 1.0//EN" "http://www.w3.org/TR/2001/PR-SVG-20010719/DTD/svg10.dtd">
<svg width="33cm" height="10cm" viewBox="39 51 652 183" xmlns="http://www.w3.org/2000/svg" xmlns:xlink="http://www.w3.org/1999/xlink">
  <g>
    <rect style="fill: #ffffff" x="200" y="60" width="95.05" height="53"/>
    <rect style="fill: none; fill-opacity:0; stroke-width: 1; stroke: #000000" x="200" y="60" width="95.05" height="53"/>
    <text font-size="12.8" style="fill: #000000;text-anchor:middle;font-family:sans-serif;font-style:normal;font-weight:normal" x="247.525" y="82.4">
      <tspan x="247.525" y="82.4">Frontend</tspan>
      <tspan x="247.525" y="98.4">(page Web)</tspan>
    </text>
  </g>
  <g>
    <rect style="fill: #ffffff" x="164.202" y="160" width="166.15" height="53"/>
    <rect style="fill: none; fill-opacity:0; stroke-width: 1; stroke: #000000" x="164.202" y="160" width="166.15" height="53"/>
    <text font-size="12.8" style="fill: #000000;text-anchor:middle;font-family:sans-serif;font-style:normal;font-weight:normal" x="247.277" y="182.4">
      <tspan x="247.277" y="182.4">Serveur de géocodage</tspan>
      <tspan x="247.277" y="198.4">(Photon)</tspan>
    </text>
  </g>
  <g>
    <rect style="fill: #ffffff" x="40" y="60" width="130.05" height="53"/>
    <rect style="fill: none; fill-opacity:0; stroke-width: 1; stroke: #000000" x="40" y="60" width="130.05" height="53"/>
    <text font-size="12.8" style="fill: #000000;text-anchor:middle;font-family:sans-serif;font-style:normal;font-weight:normal" x="105.025" y="82.4">
      <tspan x="105.025" y="82.4">Serveur de tuiles</tspan>
      <tspan x="105.025" y="98.4">(MapQuest)</tspan>
    </text>
  </g>
  <g>
    <rect style="fill: #ffffff" x="380" y="51.9816" width="162.2" height="69"/>
    <rect style="fill: none; fill-opacity:0; stroke-width: 1; stroke: #000000" x="380" y="51.9816" width="162.2" height="69"/>
    <text font-size="12.8" style="fill: #000000;text-anchor:middle;font-family:sans-serif;font-style:normal;font-weight:normal" x="461.1" y="74.3816">
      <tspan x="461.1" y="74.3816">Backend</tspan>
      <tspan x="461.1" y="90.3816">(position des stations,</tspan>
      <tspan x="461.1" y="106.382">calcul de l’itinéraire)</tspan>
    </text>
  </g>
  <g>
    <rect style="fill: #ffffff" x="354.436" y="180" width="212.95" height="53"/>
    <rect style="fill: none; fill-opacity:0; stroke-width: 1; stroke: #000000" x="354.436" y="180" width="212.95" height="53"/>
    <text font-size="12.8" style="fill: #000000;text-anchor:middle;font-family:sans-serif;font-style:normal;font-weight:normal" x="460.911" y="202.4">
      <tspan x="460.911" y="202.4">Serveur de calcul d’itinéraires</tspan>
      <tspan x="460.911" y="218.4">(OSRM)</tspan>
    </text>
  </g>
  <g>
    <rect style="fill: #ffffff" x="560" y="60" width="131" height="53"/>
    <rect style="fill: none; fill-opacity:0; stroke-width: 1; stroke: #000000" x="560" y="60" width="131" height="53"/>
    <text font-size="12.8" style="fill: #000000;text-anchor:middle;font-family:sans-serif;font-style:normal;font-weight:normal" x="625.5" y="82.4">
      <tspan x="625.5" y="82.4">Base de données</tspan>
      <tspan x="625.5" y="98.4">(PostGIS)</tspan>
    </text>
  </g>
  <line style="fill: none; fill-opacity:0; stroke-width: 1; stroke: #000000" x1="295.555" y1="86.4959" x2="379.523" y2="86.4886"/>
  <line style="fill: none; fill-opacity:0; stroke-width: 1; stroke: #000000" x1="170.5" y1="86.5" x2="199.506" y2="86.5"/>
  <line style="fill: none; fill-opacity:0; stroke-width: 1; stroke: #000000" x1="247.344" y1="159.522" x2="247.458" y2="113.478"/>
  <line style="fill: none; fill-opacity:0; stroke-width: 1; stroke: #000000" x1="460.953" y1="179.513" x2="461.045" y2="121.482"/>
  <line style="fill: none; fill-opacity:0; stroke-width: 1; stroke: #000000" x1="542.708" y1="86.4907" x2="559.505" y2="86.4926"/>
</svg>
